<svg id="svg" version="1.1" xmlns="http://www.w3.org/2000/svg" xmlns:xlink="http://www.w3.org/1999/xlink" width="400" height="400" viewBox="0, 0, 400,400"><g id="svgg"><path id="path0" d="M0.000 200.000 L 0.000 400.000 200.000 400.000 L 400.000 400.000 400.000 200.000 L 400.000 0.000 200.000 0.000 L 0.000 0.000 0.000 200.000 M331.538 11.130 C 348.916 18.308,353.356 42.297,339.805 55.800 C 333.267 62.315,324.181 64.520,315.657 61.659 C 313.041 60.781,312.576 60.830,311.676 62.077 C 311.017 62.991,309.569 62.693,307.600 61.239 C 305.632 59.785,305.565 59.639,305.834 57.374 C 306.041 55.626,305.943 55.188,305.115 54.174 C 292.435 38.632,299.884 14.850,319.000 9.850 C 321.488 9.199,328.628 9.928,331.538 11.130 M156.298 75.839 C 169.287 80.223,176.266 96.118,171.485 110.429 L 170.107 114.557 172.553 116.987 C 173.899 118.324,176.168 120.404,177.596 121.609 C 180.183 123.792,182.125 125.477,183.819 127.005 C 185.698 128.699,189.476 131.985,191.244 133.461 C 192.258 134.307,195.750 137.340,199.004 140.200 C 220.978 159.515,218.690 157.997,222.042 155.480 C 228.857 150.364,237.463 149.307,245.115 152.646 C 247.600 153.731,248.848 153.474,249.567 151.729 C 249.822 151.108,250.467 149.880,250.999 149.000 C 251.532 148.120,252.304 146.770,252.716 146.000 C 253.611 144.326,255.035 141.852,256.053 140.200 C 256.460 139.540,257.092 138.428,257.457 137.728 C 258.410 135.904,259.724 135.706,261.750 137.079 C 264.281 138.795,264.703 140.176,263.268 142.046 C 262.866 142.571,262.419 143.270,262.277 143.600 C 262.134 143.930,261.564 144.920,261.011 145.800 C 260.458 146.680,259.789 147.850,259.525 148.400 C 259.261 148.950,258.831 149.670,258.569 150.000 C 257.504 151.343,254.400 157.595,254.400 158.398 C 254.400 158.872,255.098 160.462,255.952 161.930 C 263.042 174.126,261.617 187.901,252.315 197.075 C 233.198 215.928,204.546 194.410,213.259 167.745 L 214.522 163.878 212.361 161.837 C 209.604 159.234,204.744 154.911,200.400 151.198 C 198.530 149.600,195.830 147.255,194.400 145.988 C 192.970 144.720,190.090 142.198,188.000 140.383 C 185.910 138.568,183.030 136.043,181.600 134.773 C 180.170 133.503,178.100 131.708,177.000 130.784 C 175.900 129.861,174.100 128.260,173.000 127.228 C 166.698 121.313,165.531 120.825,162.758 122.941 C 155.682 128.342,146.844 129.335,138.971 125.616 C 135.077 123.776,135.167 123.720,129.000 131.778 C 127.460 133.790,125.530 136.238,124.710 137.218 C 122.787 139.519,112.526 152.514,110.986 154.600 C 110.336 155.480,109.693 156.290,109.556 156.400 C 109.420 156.510,107.761 158.580,105.870 161.000 C 103.980 163.420,102.173 165.697,101.856 166.060 C 101.539 166.423,100.326 167.953,99.162 169.460 C 96.388 173.049,94.317 175.682,93.695 176.412 C 89.021 181.899,80.400 193.299,80.400 193.992 C 80.400 194.480,81.014 195.897,81.765 197.140 C 90.881 212.229,83.611 232.810,67.519 237.470 C 49.148 242.791,32.424 223.865,37.945 204.000 C 42.559 187.396,58.791 180.492,74.042 188.646 C 74.494 188.888,76.649 186.611,79.196 183.200 C 80.593 181.330,82.020 179.507,82.368 179.149 C 83.104 178.391,83.750 177.587,85.388 175.392 C 86.041 174.516,90.502 168.850,95.301 162.800 C 100.100 156.750,105.089 150.450,106.389 148.800 C 107.688 147.150,112.685 140.850,117.492 134.800 C 126.701 123.211,129.600 119.417,129.600 118.952 C 129.600 118.796,128.814 117.123,127.853 115.234 C 123.294 106.270,123.153 95.489,127.493 87.618 C 133.459 76.798,145.072 72.049,156.298 75.839 M291.305 86.100 C 295.173 88.262,295.148 89.383,291.099 95.535 C 290.714 96.121,290.131 97.173,289.805 97.873 C 289.479 98.573,289.027 99.260,288.800 99.400 C 288.573 99.540,288.118 100.227,287.789 100.927 C 287.459 101.627,286.389 103.460,285.410 105.000 C 284.432 106.540,282.978 108.926,282.181 110.301 C 280.367 113.428,279.573 113.695,277.084 112.015 C 274.991 110.602,274.522 109.628,275.275 108.259 C 276.034 106.880,277.469 104.443,278.608 102.600 C 279.151 101.720,280.241 99.920,281.028 98.600 C 281.816 97.280,283.247 94.940,284.210 93.400 C 285.172 91.860,286.542 89.610,287.253 88.400 C 289.011 85.411,289.538 85.112,291.305 86.100 M108.200 267.581 C 109.080 267.772,110.880 268.135,112.200 268.389 C 124.256 270.704,130.270 275.384,135.087 286.200 C 136.160 288.607,136.162 310.184,135.090 312.600 C 131.855 319.892,124.899 327.931,121.759 328.009 C 121.561 328.014,120.950 328.370,120.400 328.800 C 119.850 329.230,119.015 329.586,118.544 329.591 C 118.073 329.596,116.903 329.956,115.944 330.391 C 114.985 330.826,113.660 331.191,113.000 331.201 C 112.340 331.211,110.462 331.575,108.827 332.009 C 106.075 332.741,104.501 332.800,87.627 332.806 C 76.846 332.810,69.155 332.967,68.800 333.191 C 68.281 333.519,68.185 336.501,68.087 355.270 C 68.000 371.771,67.857 377.043,67.487 377.279 C 66.915 377.641,55.418 377.701,54.100 377.348 L 53.200 377.107 53.200 322.573 C 53.200 271.059,53.239 268.017,53.900 267.632 C 54.772 267.124,105.868 267.076,108.200 267.581 M235.500 267.452 C 236.687 267.770,236.938 279.308,235.767 279.757 C 235.419 279.891,227.445 280.000,218.047 280.000 C 205.291 280.000,200.838 280.122,200.480 280.480 C 200.112 280.848,200.000 292.124,200.000 328.800 C 200.000 365.476,199.888 376.752,199.520 377.120 C 198.606 378.034,186.119 377.770,185.614 376.826 C 185.335 376.305,185.200 360.444,185.200 328.273 L 185.200 280.493 184.300 280.252 C 183.805 280.119,175.898 280.008,166.729 280.005 C 151.646 280.001,149.993 279.936,149.384 279.327 C 148.467 278.409,148.665 268.183,149.612 267.584 C 150.258 267.176,233.988 267.047,235.500 267.452 M326.157 267.833 C 326.291 268.181,326.400 270.776,326.400 273.600 C 326.400 276.424,326.291 279.019,326.157 279.367 C 325.939 279.935,323.263 280.001,300.057 280.005 C 285.836 280.008,273.795 280.119,273.300 280.252 L 272.400 280.493 272.400 297.457 L 272.400 314.420 273.426 314.810 C 274.051 315.048,283.789 315.200,298.346 315.200 C 316.397 315.200,322.357 315.317,322.720 315.680 C 323.046 316.006,323.200 317.902,323.200 321.600 C 323.200 325.298,323.046 327.194,322.720 327.520 C 322.357 327.883,316.363 328.001,298.220 328.005 C 285.009 328.008,273.795 328.119,273.300 328.252 L 272.400 328.493 272.365 351.747 C 272.346 364.536,272.211 375.900,272.065 377.000 L 271.800 379.000 265.400 379.099 C 261.796 379.155,258.738 379.031,258.400 378.814 C 257.871 378.475,257.800 371.855,257.800 323.200 C 257.800 274.543,257.871 267.926,258.400 267.592 C 259.566 266.855,325.872 267.091,326.157 267.833 M68.800 280.391 C 68.280 280.720,68.200 283.342,68.200 300.000 C 68.200 316.657,68.280 319.280,68.800 319.608 C 69.653 320.148,102.154 320.100,104.200 319.556 C 105.080 319.322,106.821 318.896,108.068 318.610 C 125.872 314.519,127.381 285.731,110.022 281.328 C 108.800 281.018,107.170 280.597,106.400 280.392 C 104.536 279.896,69.585 279.895,68.800 280.391 " stroke="none" fill="#fbfbfa" fill-rule="evenodd"></path><path id="path1" d="M53.900 267.632 C 53.239 268.017,53.200 271.059,53.200 322.573 L 53.200 377.107 54.100 377.348 C 55.418 377.701,66.915 377.641,67.487 377.279 C 67.857 377.043,68.000 371.771,68.087 355.270 C 68.185 336.501,68.281 333.519,68.800 333.191 C 69.155 332.967,76.846 332.810,87.627 332.806 C 104.501 332.800,106.075 332.741,108.827 332.009 C 110.462 331.575,112.340 331.211,113.000 331.201 C 113.660 331.191,114.985 330.826,115.944 330.391 C 116.903 329.956,118.073 329.596,118.544 329.591 C 119.015 329.586,119.850 329.230,120.400 328.800 C 120.950 328.370,121.561 328.014,121.759 328.009 C 124.899 327.931,131.855 319.892,135.090 312.600 C 136.162 310.184,136.160 288.607,135.087 286.200 C 132.568 280.544,130.060 277.159,126.000 273.937 C 122.305 271.005,119.088 269.712,112.200 268.389 C 110.880 268.135,109.080 267.772,108.200 267.581 C 105.868 267.076,54.772 267.124,53.900 267.632 M149.612 267.584 C 148.665 268.183,148.467 278.409,149.384 279.327 C 149.993 279.936,151.646 280.001,166.729 280.005 C 175.898 280.008,183.805 280.119,184.300 280.252 L 185.200 280.493 185.200 328.273 C 185.200 360.444,185.335 376.305,185.614 376.826 C 186.119 377.770,198.606 378.034,199.520 377.120 C 199.888 376.752,200.000 365.476,200.000 328.800 C 200.000 292.124,200.112 280.848,200.480 280.480 C 200.838 280.122,205.291 280.000,218.047 280.000 C 227.445 280.000,235.419 279.891,235.767 279.757 C 236.938 279.308,236.687 267.770,235.500 267.452 C 233.988 267.047,150.258 267.176,149.612 267.584 M106.400 280.392 C 107.170 280.597,108.800 281.018,110.022 281.328 C 127.381 285.731,125.872 314.519,108.068 318.610 C 106.821 318.896,105.080 319.322,104.200 319.556 C 102.154 320.100,69.653 320.148,68.800 319.608 C 68.280 319.280,68.200 316.657,68.200 300.000 C 68.200 283.342,68.280 280.720,68.800 280.391 C 69.585 279.895,104.536 279.896,106.400 280.392 " stroke="none" fill="#3784f6" fill-rule="evenodd"></path><path id="path2" d="M319.000 9.850 C 299.884 14.850,292.435 38.632,305.115 54.174 C 305.943 55.188,306.041 55.626,305.834 57.374 C 305.565 59.639,305.632 59.785,307.600 61.239 C 309.569 62.693,311.017 62.991,311.676 62.077 C 312.576 60.830,313.041 60.781,315.657 61.659 C 321.351 63.570,328.358 63.046,333.968 60.290 C 349.100 52.856,352.383 29.140,339.987 16.803 C 334.412 11.255,325.242 8.217,319.000 9.850 M144.535 74.746 C 127.642 77.776,119.210 98.241,127.853 115.234 C 128.814 117.123,129.600 118.796,129.600 118.952 C 129.600 119.417,126.701 123.211,117.492 134.800 C 112.685 140.850,107.688 147.150,106.389 148.800 C 105.089 150.450,100.100 156.750,95.301 162.800 C 90.502 168.850,86.041 174.516,85.388 175.392 C 83.750 177.587,83.104 178.391,82.368 179.149 C 82.020 179.507,80.593 181.330,79.196 183.200 C 76.649 186.611,74.494 188.888,74.042 188.646 C 58.791 180.492,42.559 187.396,37.945 204.000 C 32.424 223.865,49.148 242.791,67.519 237.470 C 83.611 232.810,90.881 212.229,81.765 197.140 C 81.014 195.897,80.400 194.480,80.400 193.992 C 80.400 193.299,89.021 181.899,93.695 176.412 C 94.317 175.682,96.388 173.049,99.162 169.460 C 100.326 167.953,101.539 166.423,101.856 166.060 C 102.173 165.697,103.980 163.420,105.870 161.000 C 107.761 158.580,109.420 156.510,109.556 156.400 C 109.693 156.290,110.336 155.480,110.986 154.600 C 112.526 152.514,122.787 139.519,124.710 137.218 C 125.530 136.238,127.460 133.790,129.000 131.778 C 135.167 123.720,135.077 123.776,138.971 125.616 C 146.844 129.335,155.682 128.342,162.758 122.941 C 165.531 120.825,166.698 121.313,173.000 127.228 C 174.100 128.260,175.900 129.861,177.000 130.784 C 178.100 131.708,180.170 133.503,181.600 134.773 C 183.030 136.043,185.910 138.568,188.000 140.383 C 190.090 142.198,192.970 144.720,194.400 145.988 C 195.830 147.255,198.530 149.600,200.400 151.198 C 204.744 154.911,209.604 159.234,212.361 161.837 L 214.522 163.878 213.259 167.745 C 208.730 181.604,213.972 195.833,225.699 201.514 C 248.731 212.673,269.588 185.384,255.952 161.930 C 255.098 160.462,254.400 158.872,254.400 158.398 C 254.400 157.595,257.504 151.343,258.569 150.000 C 258.831 149.670,259.261 148.950,259.525 148.400 C 259.789 147.850,260.458 146.680,261.011 145.800 C 261.564 144.920,262.134 143.930,262.277 143.600 C 262.419 143.270,262.866 142.571,263.268 142.046 C 264.703 140.176,264.281 138.795,261.750 137.079 C 259.724 135.706,258.410 135.904,257.457 137.728 C 257.092 138.428,256.460 139.540,256.053 140.200 C 255.035 141.852,253.611 144.326,252.716 146.000 C 252.304 146.770,251.532 148.120,250.999 149.000 C 250.467 149.880,249.822 151.108,249.567 151.729 C 248.848 153.474,247.600 153.731,245.115 152.646 C 237.463 149.307,228.857 150.364,222.042 155.480 C 218.690 157.997,220.978 159.515,199.004 140.200 C 195.750 137.340,192.258 134.307,191.244 133.461 C 189.476 131.985,185.698 128.699,183.819 127.005 C 182.125 125.477,180.183 123.792,177.596 121.609 C 176.168 120.404,173.899 118.324,172.553 116.987 L 170.107 114.557 171.485 110.429 C 177.917 91.174,163.008 71.433,144.535 74.746 M288.974 85.906 C 288.739 86.068,287.965 87.190,287.253 88.400 C 286.542 89.610,285.172 91.860,284.210 93.400 C 283.247 94.940,281.816 97.280,281.028 98.600 C 280.241 99.920,279.151 101.720,278.608 102.600 C 277.469 104.443,276.034 106.880,275.275 108.259 C 274.522 109.628,274.991 110.602,277.084 112.015 C 279.573 113.695,280.367 113.428,282.181 110.301 C 282.978 108.926,284.432 106.540,285.410 105.000 C 286.389 103.460,287.459 101.627,287.789 100.927 C 288.118 100.227,288.573 99.540,288.800 99.400 C 289.027 99.260,289.479 98.573,289.805 97.873 C 290.131 97.173,290.714 96.121,291.099 95.535 C 294.593 90.226,294.928 89.017,293.300 87.575 C 291.283 85.787,289.913 85.259,288.974 85.906 M258.400 267.592 C 257.871 267.926,257.800 274.543,257.800 323.200 C 257.800 371.855,257.871 378.475,258.400 378.814 C 258.738 379.031,261.796 379.155,265.400 379.099 L 271.800 379.000 272.065 377.000 C 272.211 375.900,272.346 364.536,272.365 351.747 L 272.400 328.493 273.300 328.252 C 273.795 328.119,285.009 328.008,298.220 328.005 C 316.363 328.001,322.357 327.883,322.720 327.520 C 323.046 327.194,323.200 325.298,323.200 321.600 C 323.200 317.902,323.046 316.006,322.720 315.680 C 322.357 315.317,316.397 315.200,298.346 315.200 C 283.789 315.200,274.051 315.048,273.426 314.810 L 272.400 314.420 272.400 297.457 L 272.400 280.493 273.300 280.252 C 273.795 280.119,285.836 280.008,300.057 280.005 C 323.263 280.001,325.939 279.935,326.157 279.367 C 326.291 279.019,326.400 276.424,326.400 273.600 C 326.400 270.776,326.291 268.181,326.157 267.833 C 325.872 267.091,259.566 266.855,258.400 267.592 " stroke="none" fill="#e85134" fill-rule="evenodd"></path></g></svg>