<svg width="1451" height="1375" xmlns="http://www.w3.org/2000/svg" xmlns:xlink="http://www.w3.org/1999/xlink" xml:space="preserve" overflow="hidden"><defs><clipPath id="clip0"><rect x="1408" y="507" width="1451" height="1375"/></clipPath><clipPath id="clip1"><rect x="1421" y="519" width="1425" height="1351"/></clipPath><clipPath id="clip2"><rect x="1421" y="519" width="1425" height="1351"/></clipPath><clipPath id="clip3"><rect x="1421" y="519" width="1425" height="1351"/></clipPath><clipPath id="clip4"><rect x="1773" y="852" width="746" height="708"/></clipPath><clipPath id="clip5"><rect x="1773" y="852" width="746" height="708"/></clipPath><clipPath id="clip6"><rect x="1773" y="852" width="746" height="708"/></clipPath></defs><g clip-path="url(#clip0)" transform="translate(-1408 -507)"><path d="M775.293 1270.1C738.498 1217.49 727.523 1203.93 720.422 1202.64 715.581 1201.67 685.886 1197.15 654.255 1192.31L596.802 1183.92 534.507 1233.95C500.293 1261.38 469.307 1285.59 466.08 1287.85 460.915 1291.08 453.492 1288.5 421.215 1273.33 399.912 1263.32 369.894 1246.86 354.079 1237.18 330.516 1222.01 325.998 1217.81 327.289 1212.32 334.067 1183.6 355.37 1066.11 354.079 1062.24 353.433 1059.33 333.744 1029.31 310.182 995.422L267.576 933.773 245.951 931.837C234.008 930.869 196.89 928.286 162.999 926.027 129.431 924.09 100.704 921.185 99.0904 919.894 96.1854 917.635 61.3263 788.527 61.6491 781.103 61.6491 778.521 92.9577 754.313 131.69 727.523L201.731 679.108 208.832 624.237C212.705 594.219 216.579 563.234 217.547 555.164L219.484 540.64 168.163 476.086 116.843 411.532 132.981 380.869C175.587 300.822 191.08 274.677 194.63 275.968 196.89 276.614 233.685 284.683 276.614 293.721L354.724 310.182 412.177 267.576C443.809 244.337 470.921 224.002 472.535 222.388 474.149 220.775 476.408 182.365 477.377 136.532L479.313 53.5798 552.905 35.1819 626.496 16.784 633.92 27.1127C639.73 34.8592 720.1 148.474 721.068 150.411 721.391 150.734 751.086 155.252 787.559 160.739L853.727 170.423 921.185 116.197 988.967 62.2946 1026.09 79.7242C1068.37 99.7359 1123.24 132.336 1123.24 137.5 1123.24 139.114 1116.46 174.619 1108.39 216.256L1093.87 291.461 1120.66 330.516C1135.18 352.142 1155.19 381.191 1165.2 395.393L1183.27 421.215 1266.87 427.025C1313.03 430.252 1351.44 433.48 1351.76 434.126 1355.31 437.353 1390.49 576.144 1388.23 577.758 1370.8 589.701 1249.12 675.235 1249.12 675.557 1248.8 675.88 1244.92 707.189 1239.76 744.63L1230.72 813.38 1282.04 878.257C1310.12 914.084 1332.72 944.425 1332.39 945.716 1324.65 964.114 1260.09 1078.05 1257.51 1078.05 1255.58 1078.05 1220.07 1070.95 1178.43 1061.91 1136.8 1053.2 1100.97 1045.77 1098.39 1045.77 1095.8 1045.77 1067.08 1065.46 1034.48 1089.35L975.411 1132.92 973.151 1216.84 970.892 1300.76 958.949 1303.67C913.439 1315.93 829.196 1336.27 825.646 1335.94 823.386 1335.94 800.792 1306.25 775.293 1270.1ZM807.57 991.549C866.315 975.734 914.73 947.975 957.336 905.692 1013.82 849.208 1045.13 782.394 1051.91 704.284 1060.3 607.13 1026.73 514.495 957.981 446.068 797.887 285.651 527.729 334.067 432.512 540.317 409.918 589.055 405.076 613.586 405.399 677.817 405.399 729.783 406.367 736.561 414.437 763.351 449.296 877.934 535.475 962.177 647.154 990.258 684.595 999.941 687.823 1000.26 737.529 998.973 769.806 998.327 789.818 996.068 807.57 991.549Z" fill="#01AB90" transform="matrix(1.00066 0 0 -1 1408.4 1882)"/><g clip-path="url(#clip1)"><g clip-path="url(#clip2)"><g clip-path="url(#clip3)"><path d="M688.185 1035.13C630.784 1028.79 589.556 1016.74 544.523 993.588 443.673 941.577 374.538 849.291 350.118 735.122 343.141 703.091 342.507 633.955 348.533 599.704 369.464 482.998 444.308 383.418 550.231 331.407 640.298 287.008 733.853 279.714 828.994 309.842 1001.83 364.072 1110.29 539.449 1083.02 720.85 1059.87 873.71 938.089 1000.56 786.815 1028.79 761.127 1033.55 706.262 1037.04 688.185 1035.13ZM747.49 982.805C883.541 967.582 992.953 873.71 1026.25 742.416 1063.67 595.899 993.588 444.308 857.219 376.123 700.237 297.474 506.149 363.121 428.134 521.372 378.978 621.587 383.418 731.95 440.502 828.994 457.31 857.536 495.684 900.032 524.226 921.598 566.722 953.628 628.881 977.731 681.843 982.805 696.748 984.391 710.702 985.659 712.922 985.976 715.142 985.976 730.682 984.708 747.49 982.805Z" fill="#0076B7" transform="matrix(1.00019 0 0 -1 1421.4 1870)"/></g></g></g><g clip-path="url(#clip4)"><g clip-path="url(#clip5)"><g clip-path="url(#clip6)"><path d="M269.945 602.021C200.531 577.598 142.257 556.602 140.543 556.173 137.972 554.888 373.21 385.208 381.78 381.78 386.065 380.495 647.869 484.616 645.727 486.759 641.442 491.044 401.062 647.012 398.919 646.584 397.634 646.584 339.36 626.445 269.945 602.021ZM407.061 619.161C424.629 610.163 429.77 599.022 421.629 587.881 416.487 580.169 410.917 578.455 391.635 578.455 364.641 578.455 344.93 587.024 340.217 600.736 333.79 622.16 377.924 634.158 407.061 619.161ZM259.233 568.171C285.799 557.03 288.799 535.606 264.804 527.465 246.379 521.038 236.095 521.895 215.528 530.893 167.538 553.174 209.529 588.738 259.233 568.171ZM491.901 562.601C505.612 552.317 508.612 539.034 498.756 530.893 487.616 521.895 448.195 523.609 434.055 533.892 418.201 545.89 415.63 564.315 429.342 569.885 444.339 576.312 479.046 572.456 491.901 562.601ZM346.216 506.898C364.212 493.615 363.784 481.189 344.502 473.047 323.078 464.049 297.797 468.763 281.943 484.188 268.66 497.471 269.517 508.183 284.514 514.61 298.654 520.609 333.79 516.324 346.216 506.898ZM569.885 512.039C598.593 497.043 586.167 471.333 549.746 471.333 515.039 471.333 488.473 493.615 503.898 510.326 512.896 520.609 551.46 521.466 569.885 512.039ZM416.916 457.193C446.053 444.767 448.195 423.343 421.201 416.059 398.062 409.632 362.927 418.63 355.214 433.198 350.501 442.196 356.071 456.336 365.069 459.764 375.781 464.049 403.204 462.764 416.916 457.193Z" fill="#8497B0" transform="matrix(1.00059 0 0 -1 1773 1560)"/><path d="M118.262 521.466C111.406 484.616 77.1273 242.094 77.9843 239.095 80.5552 232.239 314.936 53.1321 316.65 56.9885 317.507 59.1309 329.076 128.117 342.359 210.386 364.641 345.359 366.355 360.356 360.356 365.926 353.072 371.925 133.687 527.893 125.975 532.607 122.547 534.321 119.976 530.464 118.262 521.466ZM160.682 478.189C172.679 466.192 181.249 437.483 177.393 422.058 173.536 407.061 157.682 399.776 143.114 406.204 120.833 416.487 109.264 464.049 124.689 482.902 132.402 491.472 149.113 489.33 160.682 478.189ZM308.509 370.639C325.22 362.07 337.218 330.79 331.647 309.366 328.219 294.369 326.934 293.512 310.652 293.512 296.512 293.512 292.227 295.655 284.086 308.081 272.088 325.649 270.802 357.356 281.515 369.354 290.084 378.781 292.655 378.781 308.509 370.639ZM216.813 330.79C227.097 324.363 239.952 296.94 239.952 281.943 239.952 265.232 228.382 248.521 217.242 248.521 191.961 248.521 170.109 299.511 184.249 326.077 188.962 334.218 207.387 337.218 216.813 330.79ZM134.544 282.8C153.398 260.09 154.683 223.669 136.687 213.814 115.691 202.673 89.9818 231.382 89.9818 266.089 89.9818 276.801 92.1243 287.513 95.1236 290.513 104.55 299.939 122.975 296.512 134.544 282.8ZM279.372 175.25C292.227 168.395 305.51 134.973 302.082 117.405 298.654 98.5515 283.657 89.9818 268.66 98.123 237.809 114.834 232.667 179.964 262.233 179.964 266.946 179.964 274.23 177.821 279.372 175.25Z" fill="#8497B0" transform="matrix(1.00059 0 0 -1 1773 1560)"/><path d="M524.894 411.346C456.765 383.494 398.062 359.07 395.492 356.928 390.778 353.929 379.209 288.799 341.502 56.9885L339.789 47.9903 363.784 58.2739C377.067 64.2727 434.912 89.5533 492.758 114.405 550.603 139.258 599.022 161.11 601.164 162.396 604.164 165.395 655.582 442.196 655.582 456.336 655.582 459.764 654.296 462.764 652.583 462.335 650.44 462.335 593.452 439.197 524.894 411.346ZM631.587 413.059C650.869 394.206 620.875 342.788 590.452 342.788 565.6 342.788 562.172 372.353 583.596 396.777 603.307 419.487 620.018 425.057 631.587 413.059ZM537.32 284.514C557.03 265.232 525.751 214.242 494.9 214.242 463.621 214.242 473.047 267.803 506.898 284.514 524.037 293.084 529.179 293.084 537.32 284.514ZM438.34 149.541C454.194 123.832 406.632 68.9861 381.78 84.4115 364.212 95.5521 377.067 138.401 401.919 152.112 416.059 159.825 432.77 158.539 438.34 149.541Z" fill="#8497B0" transform="matrix(1.00059 0 0 -1 1773 1560)"/></g></g></g></g></svg>